<svg width="205" height="29" viewBox="0 0 205 29" fill="none" xmlns="http://www.w3.org/2000/svg">
<path d="M3.75 9.96H0.06V9H8.55V9.96H4.86V19.5H3.75V9.96ZM10.9132 13.155C11.1632 12.625 11.5332 12.225 12.0232 11.955C12.5232 11.685 13.1382 11.55 13.8682 11.55V12.585L13.6132 12.57C12.7832 12.57 12.1332 12.825 11.6632 13.335C11.1932 13.845 10.9582 14.56 10.9582 15.48V19.5H9.8932V11.61H10.9132V13.155ZM18.5419 11.55C19.5719 11.55 20.3619 11.81 20.9119 12.33C21.4619 12.84 21.7369 13.6 21.7369 14.61V19.5H20.7169V18.27C20.4769 18.68 20.1219 19 19.6519 19.23C19.1919 19.46 18.6419 19.575 18.0019 19.575C17.1219 19.575 16.4219 19.365 15.9019 18.945C15.3819 18.525 15.1219 17.97 15.1219 17.28C15.1219 16.61 15.3619 16.07 15.8419 15.66C16.3319 15.25 17.1069 15.045 18.1669 15.045H20.6719V14.565C20.6719 13.885 20.4819 13.37 20.1019 13.02C19.7219 12.66 19.1669 12.48 18.4369 12.48C17.9369 12.48 17.4569 12.565 16.9969 12.735C16.5369 12.895 16.1419 13.12 15.8119 13.41L15.3319 12.615C15.7319 12.275 16.2119 12.015 16.7719 11.835C17.3319 11.645 17.9219 11.55 18.5419 11.55ZM18.1669 18.735C18.7669 18.735 19.2819 18.6 19.7119 18.33C20.1419 18.05 20.4619 17.65 20.6719 17.13V15.84H18.1969C16.8469 15.84 16.1719 16.31 16.1719 17.25C16.1719 17.71 16.3469 18.075 16.6969 18.345C17.0469 18.605 17.5369 18.735 18.1669 18.735ZM28.6495 11.55C29.6395 11.55 30.4245 11.84 31.0045 12.42C31.5945 12.99 31.8895 13.825 31.8895 14.925V19.5H30.8245V15.03C30.8245 14.21 30.6195 13.585 30.2095 13.155C29.7995 12.725 29.2145 12.51 28.4545 12.51C27.6045 12.51 26.9295 12.765 26.4295 13.275C25.9395 13.775 25.6945 14.47 25.6945 15.36V19.5H24.6295V11.61H25.6495V13.065C25.9395 12.585 26.3395 12.215 26.8495 11.955C27.3695 11.685 27.9695 11.55 28.6495 11.55ZM36.8959 19.575C36.2559 19.575 35.6409 19.485 35.0509 19.305C34.4709 19.115 34.0159 18.88 33.6859 18.6L34.1659 17.76C34.4959 18.02 34.9109 18.235 35.4109 18.405C35.9109 18.565 36.4309 18.645 36.9709 18.645C37.6909 18.645 38.2209 18.535 38.5609 18.315C38.9109 18.085 39.0859 17.765 39.0859 17.355C39.0859 17.065 38.9909 16.84 38.8009 16.68C38.6109 16.51 38.3709 16.385 38.0809 16.305C37.7909 16.215 37.4059 16.13 36.9259 16.05C36.2859 15.93 35.7709 15.81 35.3809 15.69C34.9909 15.56 34.6559 15.345 34.3759 15.045C34.1059 14.745 33.9709 14.33 33.9709 13.8C33.9709 13.14 34.2459 12.6 34.7959 12.18C35.3459 11.76 36.1109 11.55 37.0909 11.55C37.6009 11.55 38.1109 11.62 38.6209 11.76C39.1309 11.89 39.5509 12.065 39.8809 12.285L39.4159 13.14C38.7659 12.69 37.9909 12.465 37.0909 12.465C36.4109 12.465 35.8959 12.585 35.5459 12.825C35.2059 13.065 35.0359 13.38 35.0359 13.77C35.0359 14.07 35.1309 14.31 35.3209 14.49C35.5209 14.67 35.7659 14.805 36.0559 14.895C36.3459 14.975 36.7459 15.06 37.2559 15.15C37.8859 15.27 38.3909 15.39 38.7709 15.51C39.1509 15.63 39.4759 15.835 39.7459 16.125C40.0159 16.415 40.1509 16.815 40.1509 17.325C40.1509 18.015 39.8609 18.565 39.2809 18.975C38.7109 19.375 37.9159 19.575 36.8959 19.575ZM42.1198 8.37H43.1848V19.5H42.1198V8.37ZM48.9081 11.55C49.9381 11.55 50.7281 11.81 51.2781 12.33C51.8281 12.84 52.1031 13.6 52.1031 14.61V19.5H51.0831V18.27C50.8431 18.68 50.4881 19 50.0181 19.23C49.5581 19.46 49.0081 19.575 48.3681 19.575C47.4881 19.575 46.7881 19.365 46.2681 18.945C45.7481 18.525 45.4881 17.97 45.4881 17.28C45.4881 16.61 45.7281 16.07 46.2081 15.66C46.6981 15.25 47.4731 15.045 48.5331 15.045H51.0381V14.565C51.0381 13.885 50.8481 13.37 50.4681 13.02C50.0881 12.66 49.5331 12.48 48.8031 12.48C48.3031 12.48 47.8231 12.565 47.3631 12.735C46.9031 12.895 46.5081 13.12 46.1781 13.41L45.6981 12.615C46.0981 12.275 46.5781 12.015 47.1381 11.835C47.6981 11.645 48.2881 11.55 48.9081 11.55ZM48.5331 18.735C49.1331 18.735 49.6481 18.6 50.0781 18.33C50.5081 18.05 50.8281 17.65 51.0381 17.13V15.84H48.5631C47.2131 15.84 46.5381 16.31 46.5381 17.25C46.5381 17.71 46.7131 18.075 47.0631 18.345C47.4131 18.605 47.9031 18.735 48.5331 18.735ZM59.1507 19.02C58.9507 19.2 58.7007 19.34 58.4007 19.44C58.1107 19.53 57.8057 19.575 57.4857 19.575C56.7457 19.575 56.1757 19.375 55.7757 18.975C55.3757 18.575 55.1757 18.01 55.1757 17.28V12.51H53.7657V11.61H55.1757V9.885H56.2407V11.61H58.6407V12.51H56.2407V17.22C56.2407 17.69 56.3557 18.05 56.5857 18.3C56.8257 18.54 57.1657 18.66 57.6057 18.66C57.8257 18.66 58.0357 18.625 58.2357 18.555C58.4457 18.485 58.6257 18.385 58.7757 18.255L59.1507 19.02ZM67.6812 15.885H61.0812C61.1412 16.705 61.4562 17.37 62.0262 17.88C62.5962 18.38 63.3162 18.63 64.1862 18.63C64.6762 18.63 65.1262 18.545 65.5362 18.375C65.9462 18.195 66.3012 17.935 66.6012 17.595L67.2012 18.285C66.8512 18.705 66.4112 19.025 65.8812 19.245C65.3612 19.465 64.7862 19.575 64.1562 19.575C63.3462 19.575 62.6262 19.405 61.9962 19.065C61.3762 18.715 60.8912 18.235 60.5412 17.625C60.1912 17.015 60.0162 16.325 60.0162 15.555C60.0162 14.785 60.1812 14.095 60.5112 13.485C60.8512 12.875 61.3112 12.4 61.8912 12.06C62.4812 11.72 63.1412 11.55 63.8712 11.55C64.6012 11.55 65.2562 11.72 65.8362 12.06C66.4162 12.4 66.8712 12.875 67.2012 13.485C67.5312 14.085 67.6962 14.775 67.6962 15.555L67.6812 15.885ZM63.8712 12.465C63.1112 12.465 62.4712 12.71 61.9512 13.2C61.4412 13.68 61.1512 14.31 61.0812 15.09H66.6762C66.6062 14.31 66.3112 13.68 65.7912 13.2C65.2812 12.71 64.6412 12.465 63.8712 12.465ZM77.0639 8.37V19.5H76.0439V17.94C75.7239 18.47 75.2989 18.875 74.7689 19.155C74.2489 19.435 73.6589 19.575 72.9989 19.575C72.2589 19.575 71.5889 19.405 70.9889 19.065C70.3889 18.725 69.9189 18.25 69.5789 17.64C69.2389 17.03 69.0689 16.335 69.0689 15.555C69.0689 14.775 69.2389 14.08 69.5789 13.47C69.9189 12.86 70.3889 12.39 70.9889 12.06C71.5889 11.72 72.2589 11.55 72.9989 11.55C73.6389 11.55 74.2139 11.685 74.7239 11.955C75.2439 12.215 75.6689 12.6 75.9989 13.11V8.37H77.0639ZM73.0889 18.63C73.6389 18.63 74.1339 18.505 74.5739 18.255C75.0239 17.995 75.3739 17.63 75.6239 17.16C75.8839 16.69 76.0139 16.155 76.0139 15.555C76.0139 14.955 75.8839 14.42 75.6239 13.95C75.3739 13.48 75.0239 13.12 74.5739 12.87C74.1339 12.61 73.6389 12.48 73.0889 12.48C72.5289 12.48 72.0239 12.61 71.5739 12.87C71.1339 13.12 70.7839 13.48 70.5239 13.95C70.2739 14.42 70.1489 14.955 70.1489 15.555C70.1489 16.155 70.2739 16.69 70.5239 17.16C70.7839 17.63 71.1339 17.995 71.5739 18.255C72.0239 18.505 72.5289 18.63 73.0889 18.63ZM95.5357 11.61L92.5507 19.5H91.5457L89.0557 13.035L86.5657 19.5H85.5607L82.5907 11.61H83.6107L86.0857 18.315L88.6207 11.61H89.5357L92.0557 18.315L94.5607 11.61H95.5357ZM97.1393 11.61H98.2043V19.5H97.1393V11.61ZM97.6793 9.885C97.4593 9.885 97.2743 9.81 97.1243 9.66C96.9743 9.51 96.8993 9.33 96.8993 9.12C96.8993 8.92 96.9743 8.745 97.1243 8.595C97.2743 8.445 97.4593 8.37 97.6793 8.37C97.8993 8.37 98.0843 8.445 98.2343 8.595C98.3843 8.735 98.4593 8.905 98.4593 9.105C98.4593 9.325 98.3843 9.51 98.2343 9.66C98.0843 9.81 97.8993 9.885 97.6793 9.885ZM105.323 19.02C105.123 19.2 104.873 19.34 104.573 19.44C104.283 19.53 103.978 19.575 103.658 19.575C102.918 19.575 102.348 19.375 101.948 18.975C101.548 18.575 101.348 18.01 101.348 17.28V12.51H99.9376V11.61H101.348V9.885H102.413V11.61H104.813V12.51H102.413V17.22C102.413 17.69 102.528 18.05 102.758 18.3C102.998 18.54 103.338 18.66 103.778 18.66C103.998 18.66 104.208 18.625 104.408 18.555C104.618 18.485 104.798 18.385 104.948 18.255L105.323 19.02ZM111.281 11.55C112.271 11.55 113.056 11.84 113.636 12.42C114.226 12.99 114.521 13.825 114.521 14.925V19.5H113.456V15.03C113.456 14.21 113.251 13.585 112.841 13.155C112.431 12.725 111.846 12.51 111.086 12.51C110.236 12.51 109.561 12.765 109.061 13.275C108.571 13.775 108.326 14.47 108.326 15.36V19.5H107.261V8.37H108.326V12.99C108.616 12.53 109.016 12.175 109.526 11.925C110.036 11.675 110.621 11.55 111.281 11.55Z" fill="#0F2B46"/>
<g clip-path="url(#clip0)">
<path d="M122.9 7.41812V18.9316C122.9 19.5297 123.214 20.0779 123.725 20.377L133.629 26.1254C133.654 26.14 133.679 26.1539 133.705 26.1671L138.582 29L138.565 26.5079L138.575 25.124L138.58 25.1455V24.6804C138.58 24.4047 138.72 24.1573 138.936 24.0031L139.253 23.8195L139.406 23.7334L139.398 23.7354L145.184 20.377C145.695 20.0779 146.009 19.5297 146.009 18.9316V7.41812C146.009 6.82002 145.695 6.27176 145.184 5.97271L135.28 0.224288C134.768 -0.0747627 134.141 -0.0747627 133.629 0.224288L123.725 5.98933C123.214 6.28838 122.9 6.83664 122.9 7.41812Z" fill="#0F2B46"/>
<path d="M130.459 7.93361C131.119 7.28567 132.175 7.28567 132.836 7.93361C133.31 8.38897 133.467 9.04478 133.308 9.63305L137.864 12.2931C137.872 12.2854 137.88 12.2776 137.888 12.27C138.548 11.622 139.605 11.622 140.265 12.27C140.975 12.9511 140.975 14.0809 140.265 14.7621C139.605 15.41 138.548 15.41 137.888 14.7621C137.39 14.2839 137.241 13.5846 137.442 12.9746L137.426 12.9841L132.902 10.3585C132.881 10.3813 132.859 10.4038 132.836 10.4257C132.175 11.0736 131.119 11.0736 130.459 10.4257C129.749 9.74453 129.749 8.61478 130.459 7.93361Z" fill="white"/>
<path d="M133.316 17.6764L137.757 15.094L136.931 14.6288L132.923 16.9446C132.896 16.914 132.867 16.8841 132.837 16.8551C132.176 16.2072 131.12 16.2072 130.46 16.8551C129.75 17.5363 129.75 18.666 130.46 19.3472C131.12 19.9951 132.176 19.9951 132.837 19.3472C133.303 18.8992 133.463 18.2572 133.316 17.6764Z" fill="white"/>
</g>
<path d="M152.625 8.45833H157.514C158.707 8.45833 159.767 8.67639 160.694 9.11251C161.621 9.53871 162.34 10.1483 162.851 10.9412C163.362 11.7243 163.618 12.6312 163.618 13.662C163.618 14.6928 163.362 15.6047 162.851 16.3977C162.34 17.1807 161.621 17.7903 160.694 18.2264C159.767 18.6526 158.707 18.8657 157.514 18.8657H152.625V8.45833ZM157.418 17.2302C158.239 17.2302 158.958 17.0865 159.575 16.7991C160.204 16.5017 160.683 16.0854 161.013 15.5502C161.354 15.005 161.525 14.3757 161.525 13.662C161.525 12.9484 161.354 12.3239 161.013 11.7887C160.683 11.2435 160.204 10.8272 159.575 10.5398C158.958 10.2424 158.239 10.0938 157.418 10.0938H154.702V17.2302H157.418Z" fill="#0F2B46"/>
<path d="M173.655 14.9406C173.655 15.0695 173.644 15.2528 173.623 15.4907H166.928C167.045 16.0755 167.349 16.5414 167.839 16.8883C168.339 17.2253 168.957 17.3938 169.692 17.3938C170.63 17.3938 171.402 17.1063 172.009 16.5315L173.08 17.6763C172.696 18.1025 172.211 18.4246 171.626 18.6427C171.04 18.8607 170.379 18.9698 169.644 18.9698C168.707 18.9698 167.881 18.7963 167.168 18.4494C166.454 18.1025 165.9 17.6218 165.506 17.0072C165.123 16.3828 164.931 15.679 164.931 14.896C164.931 14.1229 165.117 13.4291 165.49 12.8146C165.874 12.1901 166.401 11.7044 167.072 11.3575C167.743 11.0106 168.499 10.8372 169.341 10.8372C170.172 10.8372 170.912 11.0106 171.562 11.3575C172.222 11.6945 172.733 12.1752 173.096 12.7997C173.468 13.4142 173.655 14.1279 173.655 14.9406ZM169.341 12.3239C168.702 12.3239 168.158 12.5023 167.711 12.8592C167.274 13.2061 167.008 13.6719 166.912 14.2567H171.753C171.668 13.6818 171.407 13.216 170.971 12.8592C170.534 12.5023 169.991 12.3239 169.341 12.3239Z" fill="#0F2B46"/>
<path d="M183.594 14.9406C183.594 15.0695 183.584 15.2528 183.562 15.4907H176.868C176.985 16.0755 177.288 16.5414 177.778 16.8883C178.279 17.2253 178.897 17.3938 179.632 17.3938C180.569 17.3938 181.341 17.1063 181.949 16.5315L183.019 17.6763C182.636 18.1025 182.151 18.4246 181.565 18.6427C180.979 18.8607 180.319 18.9698 179.584 18.9698C178.646 18.9698 177.821 18.7963 177.107 18.4494C176.394 18.1025 175.84 17.6218 175.446 17.0072C175.062 16.3828 174.87 15.679 174.87 14.896C174.87 14.1229 175.057 13.4291 175.43 12.8146C175.813 12.1901 176.34 11.7044 177.011 11.3575C177.682 11.0106 178.439 10.8372 179.28 10.8372C180.111 10.8372 180.851 11.0106 181.501 11.3575C182.162 11.6945 182.673 12.1752 183.035 12.7997C183.408 13.4142 183.594 14.1279 183.594 14.9406ZM179.28 12.3239C178.641 12.3239 178.098 12.5023 177.65 12.8592C177.214 13.2061 176.947 13.6719 176.852 14.2567H181.693C181.608 13.6818 181.347 13.216 180.91 12.8592C180.473 12.5023 179.93 12.3239 179.28 12.3239Z" fill="#0F2B46"/>
<path d="M190.242 10.8372C191.073 10.8372 191.813 11.0057 192.463 11.3427C193.124 11.6797 193.64 12.1554 194.013 12.7699C194.386 13.3845 194.572 14.0932 194.572 14.896C194.572 15.6989 194.386 16.4125 194.013 17.037C193.64 17.6515 193.124 18.1273 192.463 18.4643C191.813 18.8013 191.073 18.9698 190.242 18.9698C189.092 18.9698 188.181 18.6129 187.51 17.8993V21.75H185.513V10.9264H187.414V11.9671C187.744 11.5904 188.149 11.308 188.629 11.1196C189.118 10.9313 189.656 10.8372 190.242 10.8372ZM190.019 17.3789C190.754 17.3789 191.355 17.1509 191.824 16.695C192.303 16.2391 192.543 15.6394 192.543 14.896C192.543 14.1526 192.303 13.553 191.824 13.097C191.355 12.6411 190.754 12.4131 190.019 12.4131C189.539 12.4131 189.108 12.5172 188.724 12.7253C188.341 12.9236 188.037 13.211 187.814 13.5877C187.59 13.9643 187.478 14.4004 187.478 14.896C187.478 15.3916 187.59 15.8277 187.814 16.2044C188.037 16.581 188.341 16.8734 188.724 17.0816C189.108 17.2798 189.539 17.3789 190.019 17.3789Z" fill="#0F2B46"/>
<path d="M196.658 8.45833H198.735V17.2302H204.583V18.8657H196.658V8.45833Z" fill="#0F2B46"/>
<defs>
<clipPath id="clip0">
<rect width="29" height="29" fill="white" transform="matrix(-1 0 0 1 149 0)"/>
</clipPath>
</defs>
</svg>
